<mxfile host="app.diagrams.net" agent="Mozilla/5.0 (Macintosh; Intel Mac OS X 10_15_7) AppleWebKit/605.1.15 (KHTML, like Gecko) Version/17.5 Safari/605.1.15" version="24.8.4" pages="2">
  <diagram name="Page-1" id="JDRaCcd1hg9tl_aYsiC9">
    <mxGraphModel dx="1742" dy="749" grid="0" gridSize="10" guides="1" tooltips="1" connect="1" arrows="1" fold="1" page="0" pageScale="1" pageWidth="827" pageHeight="1169" math="0" shadow="0">
      <root>
        <mxCell id="0" />
        <mxCell id="1" parent="0" />
        <mxCell id="zKB7vQTCph_0LIxIcwhi-92" value="" style="rounded=1;arcSize=10;dashed=1;strokeColor=#F59D56;fillColor=none;gradientColor=none;dashPattern=8 4;strokeWidth=2;" vertex="1" parent="1">
          <mxGeometry x="264" y="280" width="483" height="420" as="geometry" />
        </mxCell>
        <mxCell id="zKB7vQTCph_0LIxIcwhi-74" value="" style="rounded=1;arcSize=10;dashed=1;strokeColor=#F59D56;fillColor=default;gradientColor=none;dashPattern=8 4;strokeWidth=2;" vertex="1" parent="1">
          <mxGeometry x="247" y="300" width="483" height="420" as="geometry" />
        </mxCell>
        <mxCell id="zKB7vQTCph_0LIxIcwhi-82" value="Tenant" style="outlineConnect=0;gradientColor=none;html=1;whiteSpace=wrap;fontSize=12;fontStyle=0;strokeColor=#879196;fillColor=none;verticalAlign=top;align=center;fontColor=#879196;dashed=1;spacingTop=3;" vertex="1" parent="1">
          <mxGeometry x="-291" y="406" width="130" height="210" as="geometry" />
        </mxCell>
        <mxCell id="zKB7vQTCph_0LIxIcwhi-35" value="" style="rounded=1;arcSize=10;dashed=1;fillColor=none;gradientColor=none;dashPattern=8 3 1 3;strokeWidth=2;" vertex="1" parent="1">
          <mxGeometry x="314.5" y="320" width="205.5" height="105" as="geometry" />
        </mxCell>
        <mxCell id="zKB7vQTCph_0LIxIcwhi-66" style="rounded=0;orthogonalLoop=1;jettySize=auto;html=1;strokeWidth=2;fillColor=#f8cecc;strokeColor=#b85450;" edge="1" parent="1" source="zKB7vQTCph_0LIxIcwhi-45" target="zKB7vQTCph_0LIxIcwhi-93">
          <mxGeometry relative="1" as="geometry">
            <mxPoint x="542" y="717" as="targetPoint" />
          </mxGeometry>
        </mxCell>
        <mxCell id="zKB7vQTCph_0LIxIcwhi-68" style="edgeStyle=orthogonalEdgeStyle;rounded=0;orthogonalLoop=1;jettySize=auto;html=1;fillColor=#f8cecc;strokeColor=#b85450;strokeWidth=2;" edge="1" parent="1" source="zKB7vQTCph_0LIxIcwhi-45" target="zKB7vQTCph_0LIxIcwhi-67">
          <mxGeometry relative="1" as="geometry" />
        </mxCell>
        <mxCell id="zKB7vQTCph_0LIxIcwhi-45" value="" style="rounded=1;arcSize=10;dashed=1;fillColor=none;gradientColor=none;dashPattern=8 3 1 3;strokeWidth=2;" vertex="1" parent="1">
          <mxGeometry x="559.5" y="400" width="110" height="224" as="geometry" />
        </mxCell>
        <mxCell id="zKB7vQTCph_0LIxIcwhi-42" style="edgeStyle=orthogonalEdgeStyle;rounded=0;orthogonalLoop=1;jettySize=auto;html=1;fillColor=#f8cecc;strokeColor=#b85450;strokeWidth=2;" edge="1" parent="1" source="zKB7vQTCph_0LIxIcwhi-1" target="zKB7vQTCph_0LIxIcwhi-2">
          <mxGeometry relative="1" as="geometry" />
        </mxCell>
        <mxCell id="zKB7vQTCph_0LIxIcwhi-1" value="Dragonfly&amp;nbsp;&lt;div&gt;master&lt;/div&gt;" style="outlineConnect=0;dashed=0;verticalLabelPosition=bottom;verticalAlign=top;align=center;html=1;shape=mxgraph.aws3.redis;fillColor=#2E73B8;gradientColor=none;" vertex="1" parent="1">
          <mxGeometry x="387.25" y="478" width="60" height="63" as="geometry" />
        </mxCell>
        <mxCell id="zKB7vQTCph_0LIxIcwhi-2" value="Dragonfly&lt;div&gt;replica&lt;/div&gt;" style="outlineConnect=0;dashed=0;verticalLabelPosition=bottom;verticalAlign=top;align=center;html=1;shape=mxgraph.aws3.redis;fillColor=#2E73B8;gradientColor=none;" vertex="1" parent="1">
          <mxGeometry x="295" y="478" width="60" height="63" as="geometry" />
        </mxCell>
        <mxCell id="zKB7vQTCph_0LIxIcwhi-33" value="" style="sketch=0;outlineConnect=0;fontColor=#232F3E;gradientColor=none;fillColor=#8C4FFF;strokeColor=none;dashed=0;verticalLabelPosition=bottom;verticalAlign=top;align=center;html=1;fontSize=12;fontStyle=0;aspect=fixed;pointerEvents=1;shape=mxgraph.aws4.opensearch_service_data_node;" vertex="1" parent="1">
          <mxGeometry x="140" y="333.5" width="78" height="78" as="geometry" />
        </mxCell>
        <mxCell id="zKB7vQTCph_0LIxIcwhi-36" style="edgeStyle=orthogonalEdgeStyle;rounded=0;orthogonalLoop=1;jettySize=auto;html=1;fillColor=#f8cecc;strokeColor=#b85450;strokeWidth=2;" edge="1" parent="1" source="zKB7vQTCph_0LIxIcwhi-35" target="zKB7vQTCph_0LIxIcwhi-33">
          <mxGeometry relative="1" as="geometry" />
        </mxCell>
        <mxCell id="zKB7vQTCph_0LIxIcwhi-37" value="" style="edgeStyle=orthogonalEdgeStyle;rounded=0;orthogonalLoop=1;jettySize=auto;html=1;entryX=0.5;entryY=0;entryDx=0;entryDy=0;entryPerimeter=0;fillColor=#f8cecc;strokeColor=#b85450;strokeWidth=2;" edge="1" parent="1" source="zKB7vQTCph_0LIxIcwhi-35" target="zKB7vQTCph_0LIxIcwhi-1">
          <mxGeometry relative="1" as="geometry" />
        </mxCell>
        <mxCell id="zKB7vQTCph_0LIxIcwhi-46" style="edgeStyle=orthogonalEdgeStyle;rounded=0;orthogonalLoop=1;jettySize=auto;html=1;entryX=1;entryY=0.53;entryDx=0;entryDy=0;entryPerimeter=0;fillColor=#f8cecc;strokeColor=#b85450;strokeWidth=2;" edge="1" parent="1" source="zKB7vQTCph_0LIxIcwhi-45" target="zKB7vQTCph_0LIxIcwhi-1">
          <mxGeometry relative="1" as="geometry" />
        </mxCell>
        <mxCell id="zKB7vQTCph_0LIxIcwhi-47" value="RTE" style="sketch=0;points=[[0,0,0],[0.25,0,0],[0.5,0,0],[0.75,0,0],[1,0,0],[0,1,0],[0.25,1,0],[0.5,1,0],[0.75,1,0],[1,1,0],[0,0.25,0],[0,0.5,0],[0,0.75,0],[1,0.25,0],[1,0.5,0],[1,0.75,0]];outlineConnect=0;fontColor=#232F3E;fillColor=#ED7100;strokeColor=#ffffff;dashed=0;verticalLabelPosition=bottom;verticalAlign=top;align=center;html=1;fontSize=12;fontStyle=0;aspect=fixed;shape=mxgraph.aws4.resourceIcon;resIcon=mxgraph.aws4.compute;" vertex="1" parent="1">
          <mxGeometry x="355" y="350.5" width="49" height="49" as="geometry" />
        </mxCell>
        <mxCell id="zKB7vQTCph_0LIxIcwhi-48" value="RTE" style="sketch=0;points=[[0,0,0],[0.25,0,0],[0.5,0,0],[0.75,0,0],[1,0,0],[0,1,0],[0.25,1,0],[0.5,1,0],[0.75,1,0],[1,1,0],[0,0.25,0],[0,0.5,0],[0,0.75,0],[1,0.25,0],[1,0.5,0],[1,0.75,0]];outlineConnect=0;fontColor=#232F3E;fillColor=#ED7100;strokeColor=#ffffff;dashed=0;verticalLabelPosition=bottom;verticalAlign=top;align=center;html=1;fontSize=12;fontStyle=0;aspect=fixed;shape=mxgraph.aws4.resourceIcon;resIcon=mxgraph.aws4.compute;" vertex="1" parent="1">
          <mxGeometry x="430" y="350.5" width="49" height="49" as="geometry" />
        </mxCell>
        <mxCell id="zKB7vQTCph_0LIxIcwhi-49" value="Egress Gw" style="sketch=0;points=[[0,0,0],[0.25,0,0],[0.5,0,0],[0.75,0,0],[1,0,0],[0,1,0],[0.25,1,0],[0.5,1,0],[0.75,1,0],[1,1,0],[0,0.25,0],[0,0.5,0],[0,0.75,0],[1,0.25,0],[1,0.5,0],[1,0.75,0]];outlineConnect=0;fontColor=#232F3E;fillColor=#ED7100;strokeColor=#ffffff;dashed=0;verticalLabelPosition=bottom;verticalAlign=top;align=center;html=1;fontSize=12;fontStyle=0;aspect=fixed;shape=mxgraph.aws4.resourceIcon;resIcon=mxgraph.aws4.compute;" vertex="1" parent="1">
          <mxGeometry x="589.5" y="453" width="49" height="49" as="geometry" />
        </mxCell>
        <mxCell id="zKB7vQTCph_0LIxIcwhi-52" value="Egress Gw" style="sketch=0;points=[[0,0,0],[0.25,0,0],[0.5,0,0],[0.75,0,0],[1,0,0],[0,1,0],[0.25,1,0],[0.5,1,0],[0.75,1,0],[1,1,0],[0,0.25,0],[0,0.5,0],[0,0.75,0],[1,0.25,0],[1,0.5,0],[1,0.75,0]];outlineConnect=0;fontColor=#232F3E;fillColor=#ED7100;strokeColor=#ffffff;dashed=0;verticalLabelPosition=bottom;verticalAlign=top;align=center;html=1;fontSize=12;fontStyle=0;aspect=fixed;shape=mxgraph.aws4.resourceIcon;resIcon=mxgraph.aws4.compute;" vertex="1" parent="1">
          <mxGeometry x="590" y="534" width="49" height="49" as="geometry" />
        </mxCell>
        <mxCell id="zKB7vQTCph_0LIxIcwhi-55" style="rounded=0;orthogonalLoop=1;jettySize=auto;html=1;fillColor=#f8cecc;strokeColor=#b85450;strokeWidth=2;" edge="1" parent="1" source="zKB7vQTCph_0LIxIcwhi-53" target="zKB7vQTCph_0LIxIcwhi-1">
          <mxGeometry relative="1" as="geometry" />
        </mxCell>
        <mxCell id="zKB7vQTCph_0LIxIcwhi-53" value="Ingress Gw" style="sketch=0;points=[[0,0,0],[0.25,0,0],[0.5,0,0],[0.75,0,0],[1,0,0],[0,1,0],[0.25,1,0],[0.5,1,0],[0.75,1,0],[1,1,0],[0,0.25,0],[0,0.5,0],[0,0.75,0],[1,0.25,0],[1,0.5,0],[1,0.75,0]];outlineConnect=0;fontColor=#232F3E;fillColor=#ED7100;strokeColor=#ffffff;dashed=0;verticalLabelPosition=bottom;verticalAlign=top;align=center;html=1;fontSize=12;fontStyle=0;aspect=fixed;shape=mxgraph.aws4.resourceIcon;resIcon=mxgraph.aws4.compute;" vertex="1" parent="1">
          <mxGeometry x="355" y="620" width="49" height="49" as="geometry" />
        </mxCell>
        <mxCell id="zKB7vQTCph_0LIxIcwhi-56" style="rounded=0;orthogonalLoop=1;jettySize=auto;html=1;fillColor=#f8cecc;strokeColor=#b85450;strokeWidth=2;" edge="1" parent="1" source="zKB7vQTCph_0LIxIcwhi-54" target="zKB7vQTCph_0LIxIcwhi-1">
          <mxGeometry relative="1" as="geometry" />
        </mxCell>
        <mxCell id="zKB7vQTCph_0LIxIcwhi-54" value="Ingress Gw" style="sketch=0;points=[[0,0,0],[0.25,0,0],[0.5,0,0],[0.75,0,0],[1,0,0],[0,1,0],[0.25,1,0],[0.5,1,0],[0.75,1,0],[1,1,0],[0,0.25,0],[0,0.5,0],[0,0.75,0],[1,0.25,0],[1,0.5,0],[1,0.75,0]];outlineConnect=0;fontColor=#232F3E;fillColor=#ED7100;strokeColor=#ffffff;dashed=0;verticalLabelPosition=bottom;verticalAlign=top;align=center;html=1;fontSize=12;fontStyle=0;aspect=fixed;shape=mxgraph.aws4.resourceIcon;resIcon=mxgraph.aws4.compute;" vertex="1" parent="1">
          <mxGeometry x="430" y="620" width="49" height="49" as="geometry" />
        </mxCell>
        <mxCell id="zKB7vQTCph_0LIxIcwhi-72" style="edgeStyle=orthogonalEdgeStyle;rounded=0;orthogonalLoop=1;jettySize=auto;html=1;strokeColor=#6C8EBF;strokeWidth=2;" edge="1" parent="1" source="zKB7vQTCph_0LIxIcwhi-57" target="zKB7vQTCph_0LIxIcwhi-69">
          <mxGeometry relative="1" as="geometry" />
        </mxCell>
        <mxCell id="zKB7vQTCph_0LIxIcwhi-57" value="Management&amp;nbsp;&lt;div&gt;backend&lt;/div&gt;" style="sketch=0;points=[[0,0,0],[0.25,0,0],[0.5,0,0],[0.75,0,0],[1,0,0],[0,1,0],[0.25,1,0],[0.5,1,0],[0.75,1,0],[1,1,0],[0,0.25,0],[0,0.5,0],[0,0.75,0],[1,0.25,0],[1,0.5,0],[1,0.75,0]];outlineConnect=0;fontColor=#232F3E;fillColor=#ED7100;strokeColor=#ffffff;dashed=0;verticalLabelPosition=bottom;verticalAlign=top;align=center;html=1;fontSize=12;fontStyle=0;aspect=fixed;shape=mxgraph.aws4.resourceIcon;resIcon=mxgraph.aws4.compute;" vertex="1" parent="1">
          <mxGeometry x="20" y="486.5" width="49" height="49" as="geometry" />
        </mxCell>
        <mxCell id="zKB7vQTCph_0LIxIcwhi-58" value="Autoscalling AEP Real Time Engine" style="text;html=1;align=center;verticalAlign=middle;whiteSpace=wrap;rounded=0;" vertex="1" parent="1">
          <mxGeometry x="309" y="320.5" width="210" height="30" as="geometry" />
        </mxCell>
        <mxCell id="zKB7vQTCph_0LIxIcwhi-59" value="autoscaling egress&lt;div&gt;&amp;nbsp;gateways&lt;/div&gt;&lt;div&gt;(per gateway type)&lt;/div&gt;" style="text;html=1;align=center;verticalAlign=middle;whiteSpace=wrap;rounded=0;" vertex="1" parent="1">
          <mxGeometry x="509.5" y="411.5" width="210" height="30" as="geometry" />
        </mxCell>
        <mxCell id="zKB7vQTCph_0LIxIcwhi-95" style="edgeStyle=orthogonalEdgeStyle;rounded=0;orthogonalLoop=1;jettySize=auto;html=1;fillColor=#f8cecc;strokeColor=#b85450;strokeWidth=2;" edge="1" parent="1" source="zKB7vQTCph_0LIxIcwhi-63" target="zKB7vQTCph_0LIxIcwhi-93">
          <mxGeometry relative="1" as="geometry" />
        </mxCell>
        <mxCell id="zKB7vQTCph_0LIxIcwhi-63" value="CSP Network" style="ellipse;shape=cloud;whiteSpace=wrap;html=1;align=center;fillColor=#d5e8d4;strokeColor=#82b366;fontStyle=1;fontSize=15;" vertex="1" parent="1">
          <mxGeometry x="192" y="840" width="620" height="60" as="geometry" />
        </mxCell>
        <mxCell id="zKB7vQTCph_0LIxIcwhi-64" style="rounded=0;orthogonalLoop=1;jettySize=auto;html=1;entryX=0.5;entryY=1;entryDx=0;entryDy=0;entryPerimeter=0;strokeWidth=2;fillColor=#f8cecc;strokeColor=#b85450;" edge="1" parent="1" source="zKB7vQTCph_0LIxIcwhi-93" target="zKB7vQTCph_0LIxIcwhi-53">
          <mxGeometry relative="1" as="geometry">
            <mxPoint x="439" y="725" as="sourcePoint" />
          </mxGeometry>
        </mxCell>
        <mxCell id="zKB7vQTCph_0LIxIcwhi-65" style="rounded=0;orthogonalLoop=1;jettySize=auto;html=1;entryX=0.5;entryY=1;entryDx=0;entryDy=0;entryPerimeter=0;fillColor=#f8cecc;strokeColor=#b85450;strokeWidth=2;" edge="1" parent="1" source="zKB7vQTCph_0LIxIcwhi-93" target="zKB7vQTCph_0LIxIcwhi-54">
          <mxGeometry relative="1" as="geometry">
            <mxPoint x="479" y="728" as="sourcePoint" />
          </mxGeometry>
        </mxCell>
        <mxCell id="zKB7vQTCph_0LIxIcwhi-67" value="" style="image;aspect=fixed;perimeter=ellipsePerimeter;html=1;align=center;shadow=0;dashed=0;spacingTop=3;image=img/lib/active_directory/internet_cloud.svg;" vertex="1" parent="1">
          <mxGeometry x="780" y="453" width="189.68" height="119.5" as="geometry" />
        </mxCell>
        <mxCell id="zKB7vQTCph_0LIxIcwhi-71" style="edgeStyle=orthogonalEdgeStyle;rounded=0;orthogonalLoop=1;jettySize=auto;html=1;strokeColor=#6C8EBF;strokeWidth=2;" edge="1" parent="1" source="zKB7vQTCph_0LIxIcwhi-69" target="zKB7vQTCph_0LIxIcwhi-33">
          <mxGeometry relative="1" as="geometry" />
        </mxCell>
        <mxCell id="zKB7vQTCph_0LIxIcwhi-69" value="" style="sketch=0;points=[[0,0,0],[0.25,0,0],[0.5,0,0],[0.75,0,0],[1,0,0],[0,1,0],[0.25,1,0],[0.5,1,0],[0.75,1,0],[1,1,0],[0,0.25,0],[0,0.5,0],[0,0.75,0],[1,0.25,0],[1,0.5,0],[1,0.75,0]];outlineConnect=0;fontColor=#232F3E;fillColor=#01A88D;strokeColor=#ffffff;dashed=0;verticalLabelPosition=bottom;verticalAlign=top;align=center;html=1;fontSize=12;fontStyle=0;aspect=fixed;shape=mxgraph.aws4.resourceIcon;resIcon=mxgraph.aws4.bedrock;" vertex="1" parent="1">
          <mxGeometry x="5.5" y="333.5" width="78" height="78" as="geometry" />
        </mxCell>
        <mxCell id="zKB7vQTCph_0LIxIcwhi-73" style="edgeStyle=orthogonalEdgeStyle;rounded=0;orthogonalLoop=1;jettySize=auto;html=1;entryX=0.5;entryY=0;entryDx=0;entryDy=0;entryPerimeter=0;fillColor=#dae8fc;strokeColor=#6C8EBF;strokeWidth=2;curved=1;" edge="1" parent="1" source="zKB7vQTCph_0LIxIcwhi-57" target="zKB7vQTCph_0LIxIcwhi-1">
          <mxGeometry relative="1" as="geometry">
            <Array as="points">
              <mxPoint x="228" y="511" />
              <mxPoint x="228" y="458" />
              <mxPoint x="400" y="458" />
              <mxPoint x="400" y="478" />
            </Array>
          </mxGeometry>
        </mxCell>
        <mxCell id="zKB7vQTCph_0LIxIcwhi-75" value="Availability zone" style="text;html=1;align=center;verticalAlign=middle;whiteSpace=wrap;rounded=0;" vertex="1" parent="1">
          <mxGeometry x="274" y="686" width="90" height="30" as="geometry" />
        </mxCell>
        <mxCell id="zKB7vQTCph_0LIxIcwhi-78" style="edgeStyle=orthogonalEdgeStyle;rounded=0;orthogonalLoop=1;jettySize=auto;html=1;fillColor=#dae8fc;strokeColor=#6c8ebf;strokeWidth=2;" edge="1" parent="1" source="zKB7vQTCph_0LIxIcwhi-76" target="zKB7vQTCph_0LIxIcwhi-77">
          <mxGeometry relative="1" as="geometry" />
        </mxCell>
        <mxCell id="zKB7vQTCph_0LIxIcwhi-76" value="" style="image;aspect=fixed;perimeter=ellipsePerimeter;html=1;align=center;shadow=0;dashed=0;spacingTop=3;image=img/lib/active_directory/web_server.svg;" vertex="1" parent="1">
          <mxGeometry x="-90" y="486" width="40" height="50" as="geometry" />
        </mxCell>
        <mxCell id="zKB7vQTCph_0LIxIcwhi-77" value="" style="sketch=0;points=[[0,0,0],[0.25,0,0],[0.5,0,0],[0.75,0,0],[1,0,0],[0,1,0],[0.25,1,0],[0.5,1,0],[0.75,1,0],[1,1,0],[0,0.25,0],[0,0.5,0],[0,0.75,0],[1,0.25,0],[1,0.5,0],[1,0.75,0]];outlineConnect=0;fontColor=#232F3E;fillColor=#DD344C;strokeColor=#ffffff;dashed=0;verticalLabelPosition=bottom;verticalAlign=top;align=center;html=1;fontSize=12;fontStyle=0;aspect=fixed;shape=mxgraph.aws4.resourceIcon;resIcon=mxgraph.aws4.cognito;" vertex="1" parent="1">
          <mxGeometry x="-109" y="336" width="78" height="78" as="geometry" />
        </mxCell>
        <mxCell id="zKB7vQTCph_0LIxIcwhi-79" style="edgeStyle=orthogonalEdgeStyle;rounded=0;orthogonalLoop=1;jettySize=auto;html=1;entryX=0;entryY=0.5;entryDx=0;entryDy=0;entryPerimeter=0;fillColor=#dae8fc;strokeColor=#6c8ebf;strokeWidth=2;" edge="1" parent="1" source="zKB7vQTCph_0LIxIcwhi-76" target="zKB7vQTCph_0LIxIcwhi-57">
          <mxGeometry relative="1" as="geometry" />
        </mxCell>
        <mxCell id="zKB7vQTCph_0LIxIcwhi-80" value="service admin" style="sketch=0;aspect=fixed;pointerEvents=1;shadow=0;dashed=0;html=1;strokeColor=none;labelPosition=center;verticalLabelPosition=bottom;verticalAlign=top;align=center;fillColor=#00188D;shape=mxgraph.azure.user" vertex="1" parent="1">
          <mxGeometry x="-250" y="438" width="47" height="50" as="geometry" />
        </mxCell>
        <mxCell id="zKB7vQTCph_0LIxIcwhi-81" value="service designer" style="sketch=0;aspect=fixed;pointerEvents=1;shadow=0;dashed=0;html=1;strokeColor=none;labelPosition=center;verticalLabelPosition=bottom;verticalAlign=top;align=center;fillColor=#00188D;shape=mxgraph.azure.user" vertex="1" parent="1">
          <mxGeometry x="-250" y="519.5" width="47" height="50" as="geometry" />
        </mxCell>
        <mxCell id="zKB7vQTCph_0LIxIcwhi-83" style="edgeStyle=orthogonalEdgeStyle;rounded=0;orthogonalLoop=1;jettySize=auto;html=1;entryX=0;entryY=0.5;entryDx=0;entryDy=0;fillColor=#dae8fc;strokeColor=#6c8ebf;strokeWidth=2;" edge="1" parent="1" source="zKB7vQTCph_0LIxIcwhi-82" target="zKB7vQTCph_0LIxIcwhi-76">
          <mxGeometry relative="1" as="geometry" />
        </mxCell>
        <mxCell id="zKB7vQTCph_0LIxIcwhi-84" value="" style="rounded=1;arcSize=10;dashed=1;strokeColor=#F59D56;fillColor=none;gradientColor=none;dashPattern=8 4;strokeWidth=2;" vertex="1" parent="1">
          <mxGeometry x="-120" y="443" width="220" height="277" as="geometry" />
        </mxCell>
        <mxCell id="zKB7vQTCph_0LIxIcwhi-85" value="Availability zone" style="text;html=1;align=center;verticalAlign=middle;whiteSpace=wrap;rounded=0;" vertex="1" parent="1">
          <mxGeometry x="-100" y="690" width="90" height="30" as="geometry" />
        </mxCell>
        <mxCell id="zKB7vQTCph_0LIxIcwhi-86" value="" style="image;aspect=fixed;perimeter=ellipsePerimeter;html=1;align=center;shadow=0;dashed=0;spacingTop=3;image=img/lib/active_directory/cell_phone.svg;" vertex="1" parent="1">
          <mxGeometry x="271" y="903" width="21" height="50" as="geometry" />
        </mxCell>
        <mxCell id="zKB7vQTCph_0LIxIcwhi-89" style="rounded=0;orthogonalLoop=1;jettySize=auto;html=1;" edge="1" parent="1" source="zKB7vQTCph_0LIxIcwhi-87" target="zKB7vQTCph_0LIxIcwhi-63">
          <mxGeometry relative="1" as="geometry" />
        </mxCell>
        <mxCell id="zKB7vQTCph_0LIxIcwhi-87" value="" style="verticalLabelPosition=bottom;html=1;verticalAlign=top;align=center;strokeColor=none;fillColor=#00BEF2;shape=mxgraph.azure.mobile;pointerEvents=1;" vertex="1" parent="1">
          <mxGeometry x="498" y="925" width="35" height="50" as="geometry" />
        </mxCell>
        <mxCell id="zKB7vQTCph_0LIxIcwhi-88" style="rounded=0;orthogonalLoop=1;jettySize=auto;html=1;entryX=0.31;entryY=0.8;entryDx=0;entryDy=0;entryPerimeter=0;" edge="1" parent="1" source="zKB7vQTCph_0LIxIcwhi-86" target="zKB7vQTCph_0LIxIcwhi-63">
          <mxGeometry relative="1" as="geometry" />
        </mxCell>
        <mxCell id="zKB7vQTCph_0LIxIcwhi-91" style="rounded=0;orthogonalLoop=1;jettySize=auto;html=1;" edge="1" parent="1" source="zKB7vQTCph_0LIxIcwhi-90" target="zKB7vQTCph_0LIxIcwhi-63">
          <mxGeometry relative="1" as="geometry" />
        </mxCell>
        <mxCell id="zKB7vQTCph_0LIxIcwhi-90" value="" style="sketch=0;html=1;aspect=fixed;strokeColor=none;shadow=0;fillColor=#3B8DF1;verticalAlign=top;labelPosition=center;verticalLabelPosition=bottom;shape=mxgraph.gcp2.phone_android" vertex="1" parent="1">
          <mxGeometry x="701" y="897.64" width="31" height="55.36" as="geometry" />
        </mxCell>
        <mxCell id="zKB7vQTCph_0LIxIcwhi-93" value="AWS Direct Connect" style="sketch=0;outlineConnect=0;fontColor=#232F3E;gradientColor=none;strokeColor=#ffffff;fillColor=#232F3E;dashed=0;verticalLabelPosition=middle;verticalAlign=bottom;align=center;html=1;whiteSpace=wrap;fontSize=10;fontStyle=1;spacing=3;shape=mxgraph.aws4.productIcon;prIcon=mxgraph.aws4.direct_connect;" vertex="1" parent="1">
          <mxGeometry x="473" y="726" width="58" height="99" as="geometry" />
        </mxCell>
      </root>
    </mxGraphModel>
  </diagram>
  <diagram id="1s23Qecpu8gFvEDuM7Jj" name="Page-2">
    <mxGraphModel dx="2917" dy="1470" grid="0" gridSize="10" guides="1" tooltips="1" connect="1" arrows="1" fold="1" page="0" pageScale="1" pageWidth="827" pageHeight="1169" math="0" shadow="0">
      <root>
        <mxCell id="0" />
        <mxCell id="1" parent="0" />
        <mxCell id="sy5VLaExMFTQh7F5YBlJ-1" value="AWS Cloud" style="sketch=0;outlineConnect=0;gradientColor=none;html=1;whiteSpace=wrap;fontSize=12;fontStyle=0;shape=mxgraph.aws4.group;grIcon=mxgraph.aws4.group_aws_cloud;strokeColor=#AAB7B8;fillColor=none;verticalAlign=top;align=left;spacingLeft=30;fontColor=#AAB7B8;dashed=0;" vertex="1" parent="1">
          <mxGeometry x="-331" y="-51" width="1654" height="844" as="geometry" />
        </mxCell>
        <mxCell id="S0VbNr_1chNx2PSHg-j4-64" value="" style="rounded=0;whiteSpace=wrap;html=1;fillColor=none;" parent="1" vertex="1">
          <mxGeometry x="-678" y="247" width="320" height="720" as="geometry" />
        </mxCell>
        <mxCell id="7RBB2trw8_pAzwCo_AKe-5" style="rounded=0;orthogonalLoop=1;jettySize=auto;html=1;fillColor=#dae8fc;strokeColor=#6c8ebf;strokeWidth=3;entryX=0.5;entryY=1;entryDx=0;entryDy=0;entryPerimeter=0;" parent="1" source="S0VbNr_1chNx2PSHg-j4-1" target="7RBB2trw8_pAzwCo_AKe-4" edge="1">
          <mxGeometry relative="1" as="geometry" />
        </mxCell>
        <mxCell id="S0VbNr_1chNx2PSHg-j4-42" value="Business partener" style="outlineConnect=0;dashed=0;verticalLabelPosition=bottom;verticalAlign=top;align=center;html=1;shape=mxgraph.aws3.internet_2;fillColor=#D2D3D3;gradientColor=none;" parent="1" vertex="1">
          <mxGeometry x="1445" y="412" width="79.5" height="54" as="geometry" />
        </mxCell>
        <mxCell id="S0VbNr_1chNx2PSHg-j4-43" style="edgeStyle=orthogonalEdgeStyle;rounded=0;orthogonalLoop=1;jettySize=auto;html=1;entryX=0;entryY=0.7;entryDx=0;entryDy=0;entryPerimeter=0;fillColor=#f8cecc;strokeColor=#b85450;strokeWidth=4;" parent="1" source="S0VbNr_1chNx2PSHg-j4-40" target="S0VbNr_1chNx2PSHg-j4-42" edge="1">
          <mxGeometry relative="1" as="geometry" />
        </mxCell>
        <mxCell id="S0VbNr_1chNx2PSHg-j4-61" style="edgeStyle=orthogonalEdgeStyle;rounded=0;orthogonalLoop=1;jettySize=auto;html=1;fillColor=#f8cecc;strokeColor=#b85450;strokeWidth=3;exitX=1;exitY=0.5;exitDx=0;exitDy=0;exitPerimeter=0;startArrow=classic;startFill=1;" parent="1" source="7RBB2trw8_pAzwCo_AKe-17" target="S0VbNr_1chNx2PSHg-j4-58" edge="1">
          <mxGeometry relative="1" as="geometry" />
        </mxCell>
        <mxCell id="S0VbNr_1chNx2PSHg-j4-57" value="CSP Environment&amp;nbsp;&lt;div&gt;(NSS/BSS/OSS)&lt;/div&gt;" style="image;aspect=fixed;perimeter=ellipsePerimeter;html=1;align=center;shadow=0;dashed=0;fontColor=#4277BB;labelBackgroundColor=default;fontSize=12;spacingTop=3;image=img/lib/ibm/infrastructure/mobile_provider_network.svg;" parent="1" vertex="1">
          <mxGeometry x="-580" y="794" width="90" height="90" as="geometry" />
        </mxCell>
        <mxCell id="S0VbNr_1chNx2PSHg-j4-62" style="edgeStyle=orthogonalEdgeStyle;rounded=0;orthogonalLoop=1;jettySize=auto;html=1;fillColor=#f8cecc;strokeColor=#b85450;strokeWidth=3;startArrow=classic;startFill=1;" parent="1" source="S0VbNr_1chNx2PSHg-j4-58" target="S0VbNr_1chNx2PSHg-j4-35" edge="1">
          <mxGeometry relative="1" as="geometry" />
        </mxCell>
        <mxCell id="S0VbNr_1chNx2PSHg-j4-58" value="Direct connect&lt;div&gt;(assume it exists already)&lt;/div&gt;" style="outlineConnect=0;dashed=0;verticalLabelPosition=bottom;verticalAlign=top;align=center;html=1;shape=mxgraph.aws3.direct_connect;fillColor=#F58536;gradientColor=none;" parent="1" vertex="1">
          <mxGeometry x="511.75" y="799" width="67.5" height="81" as="geometry" />
        </mxCell>
        <mxCell id="S0VbNr_1chNx2PSHg-j4-60" style="edgeStyle=orthogonalEdgeStyle;rounded=0;orthogonalLoop=1;jettySize=auto;html=1;fillColor=#dae8fc;strokeColor=#6c8ebf;strokeWidth=3;" parent="1" source="S0VbNr_1chNx2PSHg-j4-59" target="S0VbNr_1chNx2PSHg-j4-19" edge="1">
          <mxGeometry relative="1" as="geometry" />
        </mxCell>
        <mxCell id="7RBB2trw8_pAzwCo_AKe-8" value="supervision" style="edgeStyle=orthogonalEdgeStyle;rounded=0;orthogonalLoop=1;jettySize=auto;html=1;fillColor=#dae8fc;strokeColor=#6c8ebf;strokeWidth=3;" parent="1" source="S0VbNr_1chNx2PSHg-j4-59" target="7RBB2trw8_pAzwCo_AKe-4" edge="1">
          <mxGeometry relative="1" as="geometry">
            <Array as="points">
              <mxPoint x="-560" y="-254" />
              <mxPoint x="503" y="-254" />
            </Array>
          </mxGeometry>
        </mxCell>
        <mxCell id="S0VbNr_1chNx2PSHg-j4-59" value="Admin,&amp;nbsp;&lt;div&gt;Designer,&lt;/div&gt;&lt;div&gt;QA team&lt;/div&gt;" style="shadow=0;dashed=0;html=1;strokeColor=none;fillColor=#4495D1;labelPosition=center;verticalLabelPosition=bottom;verticalAlign=top;align=center;outlineConnect=0;shape=mxgraph.veeam.portal_admin;" parent="1" vertex="1">
          <mxGeometry x="-560" y="359" width="44.4" height="48.8" as="geometry" />
        </mxCell>
        <mxCell id="S0VbNr_1chNx2PSHg-j4-65" value="Communication&lt;div&gt;Service Provider&lt;/div&gt;" style="image;points=[];aspect=fixed;html=1;align=center;shadow=0;dashed=0;image=img/lib/allied_telesis/buildings/Medium_Business_Building.svg;" parent="1" vertex="1">
          <mxGeometry x="-640" y="209" width="54.6" height="70.19999999999999" as="geometry" />
        </mxCell>
        <mxCell id="7RBB2trw8_pAzwCo_AKe-1" value="Oauth2 AWS Cognito" style="sketch=0;points=[[0,0,0],[0.25,0,0],[0.5,0,0],[0.75,0,0],[1,0,0],[0,1,0],[0.25,1,0],[0.5,1,0],[0.75,1,0],[1,1,0],[0,0.25,0],[0,0.5,0],[0,0.75,0],[1,0.25,0],[1,0.5,0],[1,0.75,0]];outlineConnect=0;fontColor=#232F3E;fillColor=#DD344C;strokeColor=#ffffff;dashed=0;verticalLabelPosition=bottom;verticalAlign=top;align=center;html=1;fontSize=12;fontStyle=0;aspect=fixed;shape=mxgraph.aws4.resourceIcon;resIcon=mxgraph.aws4.cognito;" parent="1" vertex="1">
          <mxGeometry x="95" y="-191" width="78" height="78" as="geometry" />
        </mxCell>
        <mxCell id="7RBB2trw8_pAzwCo_AKe-2" style="edgeStyle=orthogonalEdgeStyle;rounded=0;orthogonalLoop=1;jettySize=auto;html=1;entryX=0.5;entryY=1;entryDx=0;entryDy=0;entryPerimeter=0;fillColor=#dae8fc;strokeColor=#6c8ebf;strokeWidth=3;" parent="1" source="S0VbNr_1chNx2PSHg-j4-4" target="7RBB2trw8_pAzwCo_AKe-1" edge="1">
          <mxGeometry relative="1" as="geometry">
            <Array as="points">
              <mxPoint x="134" y="279" />
            </Array>
          </mxGeometry>
        </mxCell>
        <mxCell id="7RBB2trw8_pAzwCo_AKe-11" value="start autoscaling" style="edgeStyle=orthogonalEdgeStyle;rounded=0;orthogonalLoop=1;jettySize=auto;html=1;fillColor=#dae8fc;strokeColor=#6c8ebf;strokeWidth=3;dashed=1;" parent="1" source="7RBB2trw8_pAzwCo_AKe-4" target="7RBB2trw8_pAzwCo_AKe-10" edge="1">
          <mxGeometry relative="1" as="geometry" />
        </mxCell>
        <mxCell id="7RBB2trw8_pAzwCo_AKe-4" value="CloudWatch" style="outlineConnect=0;dashed=0;verticalLabelPosition=bottom;verticalAlign=top;align=center;html=1;shape=mxgraph.aws3.cloudwatch;fillColor=#759C3E;gradientColor=none;" parent="1" vertex="1">
          <mxGeometry x="473" y="-212" width="82.5" height="93" as="geometry" />
        </mxCell>
        <mxCell id="7RBB2trw8_pAzwCo_AKe-7" value="manage users" style="edgeStyle=orthogonalEdgeStyle;rounded=0;orthogonalLoop=1;jettySize=auto;html=1;entryX=0;entryY=0.5;entryDx=0;entryDy=0;entryPerimeter=0;fillColor=#dae8fc;strokeColor=#6c8ebf;strokeWidth=3;" parent="1" source="S0VbNr_1chNx2PSHg-j4-59" target="7RBB2trw8_pAzwCo_AKe-1" edge="1">
          <mxGeometry relative="1" as="geometry">
            <Array as="points">
              <mxPoint x="-538" y="-152" />
            </Array>
          </mxGeometry>
        </mxCell>
        <mxCell id="7RBB2trw8_pAzwCo_AKe-12" value="aws auto scaling API" style="edgeStyle=orthogonalEdgeStyle;rounded=0;orthogonalLoop=1;jettySize=auto;html=1;entryX=1;entryY=0.5;entryDx=0;entryDy=0;fillColor=#dae8fc;strokeColor=#6c8ebf;strokeWidth=3;dashed=1;" parent="1" source="7RBB2trw8_pAzwCo_AKe-10" target="7RBB2trw8_pAzwCo_AKe-9" edge="1">
          <mxGeometry relative="1" as="geometry">
            <Array as="points">
              <mxPoint x="739" y="229" />
            </Array>
          </mxGeometry>
        </mxCell>
        <mxCell id="7RBB2trw8_pAzwCo_AKe-14" value="aws auto scaling API" style="edgeStyle=orthogonalEdgeStyle;rounded=0;orthogonalLoop=1;jettySize=auto;html=1;fillColor=#dae8fc;strokeColor=#6c8ebf;strokeWidth=3;dashed=1;" parent="1" source="7RBB2trw8_pAzwCo_AKe-10" target="7RBB2trw8_pAzwCo_AKe-13" edge="1">
          <mxGeometry relative="1" as="geometry">
            <Array as="points">
              <mxPoint x="860" y="-152" />
              <mxPoint x="860" y="423" />
            </Array>
          </mxGeometry>
        </mxCell>
        <mxCell id="7RBB2trw8_pAzwCo_AKe-10" value="" style="outlineConnect=0;dashed=0;verticalLabelPosition=bottom;verticalAlign=top;align=center;html=1;shape=mxgraph.aws3.lambda;fillColor=#F58534;gradientColor=none;" parent="1" vertex="1">
          <mxGeometry x="700" y="-212" width="76.5" height="93" as="geometry" />
        </mxCell>
        <mxCell id="7RBB2trw8_pAzwCo_AKe-17" value="SIP Load Balancer&lt;div&gt;Generic network load blancer&lt;/div&gt;" style="fillColor=#28A8E0;verticalLabelPosition=bottom;sketch=0;html=1;strokeColor=#ffffff;verticalAlign=top;align=center;points=[[0.145,0.145,0],[0.5,0,0],[0.855,0.145,0],[1,0.5,0],[0.855,0.855,0],[0.5,1,0],[0.145,0.855,0],[0,0.5,0]];pointerEvents=1;shape=mxgraph.cisco_safe.compositeIcon;bgIcon=ellipse;resIcon=mxgraph.cisco_safe.capability.load_balancer;" parent="1" vertex="1">
          <mxGeometry x="-443" y="818" width="43" height="43" as="geometry" />
        </mxCell>
        <mxCell id="7RBB2trw8_pAzwCo_AKe-18" style="edgeStyle=orthogonalEdgeStyle;rounded=0;orthogonalLoop=1;jettySize=auto;html=1;entryX=0;entryY=0.5;entryDx=0;entryDy=0;entryPerimeter=0;fillColor=#f8cecc;strokeColor=#b85450;strokeWidth=3;startArrow=classic;startFill=1;" parent="1" source="S0VbNr_1chNx2PSHg-j4-57" target="7RBB2trw8_pAzwCo_AKe-17" edge="1">
          <mxGeometry relative="1" as="geometry" />
        </mxCell>
        <mxCell id="S0VbNr_1chNx2PSHg-j4-2" value="Region" style="points=[[0,0],[0.25,0],[0.5,0],[0.75,0],[1,0],[1,0.25],[1,0.5],[1,0.75],[1,1],[0.75,1],[0.5,1],[0.25,1],[0,1],[0,0.75],[0,0.5],[0,0.25]];outlineConnect=0;gradientColor=none;html=1;whiteSpace=wrap;fontSize=12;fontStyle=0;container=1;pointerEvents=0;collapsible=0;recursiveResize=0;shape=mxgraph.aws4.group;grIcon=mxgraph.aws4.group_region;strokeColor=#00A4A6;fillColor=none;verticalAlign=top;align=left;spacingLeft=30;fontColor=#147EBA;dashed=1;" parent="1" vertex="1">
          <mxGeometry x="-281" y="-21" width="1573" height="792" as="geometry" />
        </mxCell>
        <mxCell id="S0VbNr_1chNx2PSHg-j4-1" value="VPC" style="shape=mxgraph.ibm.box;prType=vpc;fontStyle=0;verticalAlign=top;align=left;spacingLeft=32;spacingTop=4;fillColor=none;rounded=0;whiteSpace=wrap;html=1;strokeColor=#4376BB;strokeWidth=2;dashed=0;container=1;spacing=-4;collapsible=0;expand=0;recursiveResize=0;" parent="S0VbNr_1chNx2PSHg-j4-2" vertex="1">
          <mxGeometry x="92" y="11" width="1410" height="750" as="geometry" />
        </mxCell>
        <mxCell id="S0VbNr_1chNx2PSHg-j4-13" value="Management&amp;nbsp;&lt;div&gt;traffic ALB&amp;nbsp;&lt;/div&gt;" style="outlineConnect=0;dashed=0;verticalLabelPosition=bottom;verticalAlign=top;align=center;html=1;shape=mxgraph.aws3.application_load_balancer;fillColor=#F58534;gradientColor=none;" parent="S0VbNr_1chNx2PSHg-j4-1" vertex="1">
          <mxGeometry x="15" y="357.4" width="69" height="72" as="geometry" />
        </mxCell>
        <mxCell id="S0VbNr_1chNx2PSHg-j4-35" value="CSP Gateway" style="outlineConnect=0;dashed=0;verticalLabelPosition=bottom;verticalAlign=top;align=center;html=1;shape=mxgraph.aws3.internet_gateway;fillColor=#F58534;gradientColor=none;" parent="S0VbNr_1chNx2PSHg-j4-1" vertex="1">
          <mxGeometry x="840" y="649" width="69" height="72" as="geometry" />
        </mxCell>
        <mxCell id="S0VbNr_1chNx2PSHg-j4-40" value="Egress only&amp;nbsp;&lt;div&gt;Internet gateway&lt;/div&gt;" style="outlineConnect=0;dashed=0;verticalLabelPosition=bottom;verticalAlign=top;align=center;html=1;shape=mxgraph.aws3.internet_gateway;fillColor=#F58534;gradientColor=none;" parent="S0VbNr_1chNx2PSHg-j4-1" vertex="1">
          <mxGeometry x="1290" y="424.5" width="69" height="72" as="geometry" />
        </mxCell>
        <mxCell id="S0VbNr_1chNx2PSHg-j4-3" value="Availability zone (minimum 2 zones)" style="sketch=0;outlineConnect=0;gradientColor=none;html=1;whiteSpace=wrap;fontSize=10;fontStyle=0;shape=mxgraph.aws4.group;grIcon=mxgraph.aws4.group_availability_zone;strokeColor=#545B64;fillColor=none;verticalAlign=top;align=left;spacingLeft=30;fontColor=#545B64;dashed=1;" parent="S0VbNr_1chNx2PSHg-j4-2" vertex="1">
          <mxGeometry x="420" y="20" width="690" height="550" as="geometry" />
        </mxCell>
        <mxCell id="S0VbNr_1chNx2PSHg-j4-63" value="Internal-SG" style="fontStyle=0;verticalAlign=top;align=center;spacingTop=-2;fillColor=none;rounded=0;whiteSpace=wrap;html=1;strokeColor=#FF0000;strokeWidth=2;dashed=1;container=1;collapsible=0;expand=0;recursiveResize=0;" parent="S0VbNr_1chNx2PSHg-j4-2" vertex="1">
          <mxGeometry x="484" y="90" width="256" height="340" as="geometry" />
        </mxCell>
        <mxCell id="7RBB2trw8_pAzwCo_AKe-9" value="Auto Scaling group" style="points=[[0,0],[0.25,0],[0.5,0],[0.75,0],[1,0],[1,0.25],[1,0.5],[1,0.75],[1,1],[0.75,1],[0.5,1],[0.25,1],[0,1],[0,0.75],[0,0.5],[0,0.25]];outlineConnect=0;gradientColor=none;html=1;whiteSpace=wrap;fontSize=12;fontStyle=0;container=1;pointerEvents=0;collapsible=0;recursiveResize=0;shape=mxgraph.aws4.groupCenter;grIcon=mxgraph.aws4.group_auto_scaling_group;grStroke=1;strokeColor=#D86613;fillColor=none;verticalAlign=top;align=center;fontColor=#D86613;dashed=1;spacingTop=25;" parent="S0VbNr_1chNx2PSHg-j4-63" vertex="1">
          <mxGeometry x="60" y="100" width="130" height="120" as="geometry" />
        </mxCell>
        <mxCell id="S0VbNr_1chNx2PSHg-j4-55" style="edgeStyle=orthogonalEdgeStyle;rounded=0;orthogonalLoop=1;jettySize=auto;html=1;" parent="S0VbNr_1chNx2PSHg-j4-2" source="S0VbNr_1chNx2PSHg-j4-14" target="S0VbNr_1chNx2PSHg-j4-22" edge="1">
          <mxGeometry relative="1" as="geometry" />
        </mxCell>
        <mxCell id="S0VbNr_1chNx2PSHg-j4-14" value="SIP-LAN" style="sketch=0;outlineConnect=0;gradientColor=none;html=1;whiteSpace=wrap;fontSize=10;fontStyle=0;shape=mxgraph.aws4.group;grIcon=mxgraph.aws4.group_subnet;strokeColor=#879196;fillColor=none;verticalAlign=top;align=left;spacingLeft=30;fontColor=#879196;dashed=0;" parent="S0VbNr_1chNx2PSHg-j4-2" vertex="1">
          <mxGeometry x="460" y="443" width="290" height="110" as="geometry" />
        </mxCell>
        <mxCell id="S0VbNr_1chNx2PSHg-j4-17" value="SIP-INET-SG" style="fontStyle=0;verticalAlign=top;align=center;spacingTop=-2;fillColor=none;rounded=0;whiteSpace=wrap;html=1;strokeColor=#FF0000;strokeWidth=2;dashed=1;container=1;collapsible=0;expand=0;recursiveResize=0;fontSize=10;" parent="S0VbNr_1chNx2PSHg-j4-2" vertex="1">
          <mxGeometry x="544" y="452" width="180" height="94" as="geometry" />
        </mxCell>
        <mxCell id="S0VbNr_1chNx2PSHg-j4-15" value="SIP GW" style="sketch=0;points=[[0,0,0],[0.25,0,0],[0.5,0,0],[0.75,0,0],[1,0,0],[0,1,0],[0.25,1,0],[0.5,1,0],[0.75,1,0],[1,1,0],[0,0.25,0],[0,0.5,0],[0,0.75,0],[1,0.25,0],[1,0.5,0],[1,0.75,0]];outlineConnect=0;fontColor=#232F3E;fillColor=#ED7100;strokeColor=#ffffff;dashed=0;verticalLabelPosition=bottom;verticalAlign=top;align=center;html=1;fontSize=10;fontStyle=0;aspect=fixed;shape=mxgraph.aws4.resourceIcon;resIcon=mxgraph.aws4.compute;" parent="S0VbNr_1chNx2PSHg-j4-17" vertex="1">
          <mxGeometry x="26" y="25" width="44" height="44" as="geometry" />
        </mxCell>
        <mxCell id="S0VbNr_1chNx2PSHg-j4-16" value="SIP GW" style="sketch=0;points=[[0,0,0],[0.25,0,0],[0.5,0,0],[0.75,0,0],[1,0,0],[0,1,0],[0.25,1,0],[0.5,1,0],[0.75,1,0],[1,1,0],[0,0.25,0],[0,0.5,0],[0,0.75,0],[1,0.25,0],[1,0.5,0],[1,0.75,0]];outlineConnect=0;fontColor=#232F3E;fillColor=#ED7100;strokeColor=#ffffff;dashed=0;verticalLabelPosition=bottom;verticalAlign=top;align=center;html=1;fontSize=10;fontStyle=0;aspect=fixed;shape=mxgraph.aws4.resourceIcon;resIcon=mxgraph.aws4.compute;" parent="S0VbNr_1chNx2PSHg-j4-17" vertex="1">
          <mxGeometry x="96" y="25" width="44" height="44" as="geometry" />
        </mxCell>
        <mxCell id="S0VbNr_1chNx2PSHg-j4-27" style="edgeStyle=orthogonalEdgeStyle;rounded=0;orthogonalLoop=1;jettySize=auto;html=1;fillColor=#dae8fc;strokeColor=#6c8ebf;strokeWidth=3;" parent="S0VbNr_1chNx2PSHg-j4-2" source="S0VbNr_1chNx2PSHg-j4-4" target="S0VbNr_1chNx2PSHg-j4-22" edge="1">
          <mxGeometry relative="1" as="geometry" />
        </mxCell>
        <mxCell id="S0VbNr_1chNx2PSHg-j4-4" value="MGMT-LAN" style="sketch=0;outlineConnect=0;gradientColor=none;html=1;whiteSpace=wrap;fontSize=10;fontStyle=0;shape=mxgraph.aws4.group;grIcon=mxgraph.aws4.group_subnet;strokeColor=#879196;fillColor=none;verticalAlign=top;align=left;spacingLeft=30;fontColor=#879196;dashed=0;" parent="S0VbNr_1chNx2PSHg-j4-2" vertex="1">
          <mxGeometry x="220" y="188" width="123" height="370" as="geometry" />
        </mxCell>
        <mxCell id="S0VbNr_1chNx2PSHg-j4-12" value="MGMT-INET-SG" style="fontStyle=0;verticalAlign=top;align=center;spacingTop=-2;fillColor=none;rounded=0;whiteSpace=wrap;html=1;strokeColor=#FF0000;strokeWidth=2;dashed=1;container=1;collapsible=0;expand=0;recursiveResize=0;fontSize=10;" parent="S0VbNr_1chNx2PSHg-j4-2" vertex="1">
          <mxGeometry x="233" y="218" width="100" height="330" as="geometry" />
        </mxCell>
        <mxCell id="S0VbNr_1chNx2PSHg-j4-5" value="nginx static&lt;div style=&quot;font-size: 10px;&quot;&gt;&amp;nbsp;content&lt;/div&gt;" style="sketch=0;points=[[0,0,0],[0.25,0,0],[0.5,0,0],[0.75,0,0],[1,0,0],[0,1,0],[0.25,1,0],[0.5,1,0],[0.75,1,0],[1,1,0],[0,0.25,0],[0,0.5,0],[0,0.75,0],[1,0.25,0],[1,0.5,0],[1,0.75,0]];outlineConnect=0;fontColor=#232F3E;fillColor=#ED7100;strokeColor=#ffffff;dashed=0;verticalLabelPosition=bottom;verticalAlign=top;align=center;html=1;fontSize=10;fontStyle=0;aspect=fixed;shape=mxgraph.aws4.resourceIcon;resIcon=mxgraph.aws4.compute;" parent="S0VbNr_1chNx2PSHg-j4-2" vertex="1">
          <mxGeometry x="253" y="240" width="44" height="44" as="geometry" />
        </mxCell>
        <mxCell id="S0VbNr_1chNx2PSHg-j4-6" value="nginx static&lt;div style=&quot;font-size: 10px;&quot;&gt;&amp;nbsp;content&lt;/div&gt;" style="sketch=0;points=[[0,0,0],[0.25,0,0],[0.5,0,0],[0.75,0,0],[1,0,0],[0,1,0],[0.25,1,0],[0.5,1,0],[0.75,1,0],[1,1,0],[0,0.25,0],[0,0.5,0],[0,0.75,0],[1,0.25,0],[1,0.5,0],[1,0.75,0]];outlineConnect=0;fontColor=#232F3E;fillColor=#ED7100;strokeColor=#ffffff;dashed=0;verticalLabelPosition=bottom;verticalAlign=top;align=center;html=1;fontSize=10;fontStyle=0;aspect=fixed;shape=mxgraph.aws4.resourceIcon;resIcon=mxgraph.aws4.compute;" parent="S0VbNr_1chNx2PSHg-j4-2" vertex="1">
          <mxGeometry x="253" y="323" width="44" height="44" as="geometry" />
        </mxCell>
        <mxCell id="S0VbNr_1chNx2PSHg-j4-7" value="gui-backend" style="sketch=0;points=[[0,0,0],[0.25,0,0],[0.5,0,0],[0.75,0,0],[1,0,0],[0,1,0],[0.25,1,0],[0.5,1,0],[0.75,1,0],[1,1,0],[0,0.25,0],[0,0.5,0],[0,0.75,0],[1,0.25,0],[1,0.5,0],[1,0.75,0]];outlineConnect=0;fontColor=#232F3E;fillColor=#ED7100;strokeColor=#ffffff;dashed=0;verticalLabelPosition=bottom;verticalAlign=top;align=center;html=1;fontSize=10;fontStyle=0;aspect=fixed;shape=mxgraph.aws4.resourceIcon;resIcon=mxgraph.aws4.compute;" parent="S0VbNr_1chNx2PSHg-j4-2" vertex="1">
          <mxGeometry x="253" y="410" width="44" height="44" as="geometry" />
        </mxCell>
        <mxCell id="S0VbNr_1chNx2PSHg-j4-8" value="gui-backend" style="sketch=0;points=[[0,0,0],[0.25,0,0],[0.5,0,0],[0.75,0,0],[1,0,0],[0,1,0],[0.25,1,0],[0.5,1,0],[0.75,1,0],[1,1,0],[0,0.25,0],[0,0.5,0],[0,0.75,0],[1,0.25,0],[1,0.5,0],[1,0.75,0]];outlineConnect=0;fontColor=#232F3E;fillColor=#ED7100;strokeColor=#ffffff;dashed=0;verticalLabelPosition=bottom;verticalAlign=top;align=center;html=1;fontSize=10;fontStyle=0;aspect=fixed;shape=mxgraph.aws4.resourceIcon;resIcon=mxgraph.aws4.compute;" parent="S0VbNr_1chNx2PSHg-j4-2" vertex="1">
          <mxGeometry x="253" y="480" width="44" height="44" as="geometry" />
        </mxCell>
        <mxCell id="S0VbNr_1chNx2PSHg-j4-22" value="MBAT-REDIS-LAN" style="sketch=0;outlineConnect=0;gradientColor=none;html=1;whiteSpace=wrap;fontSize=10;fontStyle=0;shape=mxgraph.aws4.group;grIcon=mxgraph.aws4.group_subnet;strokeColor=#879196;fillColor=none;verticalAlign=top;align=left;spacingLeft=30;fontColor=#879196;dashed=0;" parent="S0VbNr_1chNx2PSHg-j4-2" vertex="1">
          <mxGeometry x="460" y="328.5" width="290" height="89" as="geometry" />
        </mxCell>
        <mxCell id="S0VbNr_1chNx2PSHg-j4-23" value="MBA-Redis" style="sketch=0;points=[[0,0,0],[0.25,0,0],[0.5,0,0],[0.75,0,0],[1,0,0],[0,1,0],[0.25,1,0],[0.5,1,0],[0.75,1,0],[1,1,0],[0,0.25,0],[0,0.5,0],[0,0.75,0],[1,0.25,0],[1,0.5,0],[1,0.75,0]];outlineConnect=0;fontColor=#232F3E;fillColor=#ED7100;strokeColor=#ffffff;dashed=0;verticalLabelPosition=bottom;verticalAlign=top;align=center;html=1;fontSize=10;fontStyle=0;aspect=fixed;shape=mxgraph.aws4.resourceIcon;resIcon=mxgraph.aws4.compute;" parent="S0VbNr_1chNx2PSHg-j4-2" vertex="1">
          <mxGeometry x="620" y="351" width="44" height="44" as="geometry" />
        </mxCell>
        <mxCell id="S0VbNr_1chNx2PSHg-j4-24" value="MBA-Redis" style="sketch=0;points=[[0,0,0],[0.25,0,0],[0.5,0,0],[0.75,0,0],[1,0,0],[0,1,0],[0.25,1,0],[0.5,1,0],[0.75,1,0],[1,1,0],[0,0.25,0],[0,0.5,0],[0,0.75,0],[1,0.25,0],[1,0.5,0],[1,0.75,0]];outlineConnect=0;fontColor=#232F3E;fillColor=#ED7100;strokeColor=#ffffff;dashed=0;verticalLabelPosition=bottom;verticalAlign=top;align=center;html=1;fontSize=10;fontStyle=0;aspect=fixed;shape=mxgraph.aws4.resourceIcon;resIcon=mxgraph.aws4.compute;" parent="S0VbNr_1chNx2PSHg-j4-2" vertex="1">
          <mxGeometry x="680" y="351" width="44" height="44" as="geometry" />
        </mxCell>
        <mxCell id="S0VbNr_1chNx2PSHg-j4-28" value="T-Redis" style="sketch=0;points=[[0,0,0],[0.25,0,0],[0.5,0,0],[0.75,0,0],[1,0,0],[0,1,0],[0.25,1,0],[0.5,1,0],[0.75,1,0],[1,1,0],[0,0.25,0],[0,0.5,0],[0,0.75,0],[1,0.25,0],[1,0.5,0],[1,0.75,0]];outlineConnect=0;fontColor=#232F3E;fillColor=#ED7100;strokeColor=#ffffff;dashed=0;verticalLabelPosition=bottom;verticalAlign=top;align=center;html=1;fontSize=10;fontStyle=0;aspect=fixed;shape=mxgraph.aws4.resourceIcon;resIcon=mxgraph.aws4.compute;" parent="S0VbNr_1chNx2PSHg-j4-2" vertex="1">
          <mxGeometry x="490" y="351" width="44" height="44" as="geometry" />
        </mxCell>
        <mxCell id="S0VbNr_1chNx2PSHg-j4-29" value="T-Redis" style="sketch=0;points=[[0,0,0],[0.25,0,0],[0.5,0,0],[0.75,0,0],[1,0,0],[0,1,0],[0.25,1,0],[0.5,1,0],[0.75,1,0],[1,1,0],[0,0.25,0],[0,0.5,0],[0,0.75,0],[1,0.25,0],[1,0.5,0],[1,0.75,0]];outlineConnect=0;fontColor=#232F3E;fillColor=#ED7100;strokeColor=#ffffff;dashed=0;verticalLabelPosition=bottom;verticalAlign=top;align=center;html=1;fontSize=10;fontStyle=0;aspect=fixed;shape=mxgraph.aws4.resourceIcon;resIcon=mxgraph.aws4.compute;" parent="S0VbNr_1chNx2PSHg-j4-2" vertex="1">
          <mxGeometry x="544" y="351" width="44" height="44" as="geometry" />
        </mxCell>
        <mxCell id="S0VbNr_1chNx2PSHg-j4-54" value="Redis/TCP" style="edgeStyle=orthogonalEdgeStyle;rounded=0;orthogonalLoop=1;jettySize=auto;html=1;fillColor=#f8cecc;strokeColor=#b85450;strokeWidth=3;" parent="S0VbNr_1chNx2PSHg-j4-2" source="S0VbNr_1chNx2PSHg-j4-31" target="S0VbNr_1chNx2PSHg-j4-22" edge="1">
          <mxGeometry relative="1" as="geometry">
            <Array as="points">
              <mxPoint x="945" y="380" />
            </Array>
          </mxGeometry>
        </mxCell>
        <mxCell id="S0VbNr_1chNx2PSHg-j4-31" value="BSS-LAN" style="sketch=0;outlineConnect=0;gradientColor=none;html=1;whiteSpace=wrap;fontSize=10;fontStyle=0;shape=mxgraph.aws4.group;grIcon=mxgraph.aws4.group_subnet;strokeColor=#879196;fillColor=none;verticalAlign=top;align=left;spacingLeft=30;fontColor=#879196;dashed=0;" parent="S0VbNr_1chNx2PSHg-j4-2" vertex="1">
          <mxGeometry x="800" y="390" width="290" height="163" as="geometry" />
        </mxCell>
        <mxCell id="S0VbNr_1chNx2PSHg-j4-32" value="BSS-SG" style="fontStyle=0;verticalAlign=top;align=center;spacingTop=-2;fillColor=none;rounded=0;whiteSpace=wrap;html=1;strokeColor=#FF0000;strokeWidth=2;dashed=1;container=1;collapsible=0;expand=0;recursiveResize=0;fontSize=10;" parent="S0VbNr_1chNx2PSHg-j4-2" vertex="1">
          <mxGeometry x="884" y="400" width="180" height="147" as="geometry" />
        </mxCell>
        <mxCell id="S0VbNr_1chNx2PSHg-j4-33" value="GW" style="sketch=0;points=[[0,0,0],[0.25,0,0],[0.5,0,0],[0.75,0,0],[1,0,0],[0,1,0],[0.25,1,0],[0.5,1,0],[0.75,1,0],[1,1,0],[0,0.25,0],[0,0.5,0],[0,0.75,0],[1,0.25,0],[1,0.5,0],[1,0.75,0]];outlineConnect=0;fontColor=#232F3E;fillColor=#ED7100;strokeColor=#ffffff;dashed=0;verticalLabelPosition=bottom;verticalAlign=top;align=center;html=1;fontSize=10;fontStyle=0;aspect=fixed;shape=mxgraph.aws4.resourceIcon;resIcon=mxgraph.aws4.compute;" parent="S0VbNr_1chNx2PSHg-j4-32" vertex="1">
          <mxGeometry x="25" y="70" width="44" height="44" as="geometry" />
        </mxCell>
        <mxCell id="S0VbNr_1chNx2PSHg-j4-34" value="GW" style="sketch=0;points=[[0,0,0],[0.25,0,0],[0.5,0,0],[0.75,0,0],[1,0,0],[0,1,0],[0.25,1,0],[0.5,1,0],[0.75,1,0],[1,1,0],[0,0.25,0],[0,0.5,0],[0,0.75,0],[1,0.25,0],[1,0.5,0],[1,0.75,0]];outlineConnect=0;fontColor=#232F3E;fillColor=#ED7100;strokeColor=#ffffff;dashed=0;verticalLabelPosition=bottom;verticalAlign=top;align=center;html=1;fontSize=10;fontStyle=0;aspect=fixed;shape=mxgraph.aws4.resourceIcon;resIcon=mxgraph.aws4.compute;" parent="S0VbNr_1chNx2PSHg-j4-32" vertex="1">
          <mxGeometry x="93" y="70" width="44" height="44" as="geometry" />
        </mxCell>
        <mxCell id="7RBB2trw8_pAzwCo_AKe-13" value="Auto Scaling group" style="points=[[0,0],[0.25,0],[0.5,0],[0.75,0],[1,0],[1,0.25],[1,0.5],[1,0.75],[1,1],[0.75,1],[0.5,1],[0.25,1],[0,1],[0,0.75],[0,0.5],[0,0.25]];outlineConnect=0;gradientColor=none;html=1;whiteSpace=wrap;fontSize=12;fontStyle=0;container=1;pointerEvents=0;collapsible=0;recursiveResize=0;shape=mxgraph.aws4.groupCenter;grIcon=mxgraph.aws4.group_auto_scaling_group;grStroke=1;strokeColor=#D86613;fillColor=none;verticalAlign=top;align=center;fontColor=#D86613;dashed=1;spacingTop=25;" parent="S0VbNr_1chNx2PSHg-j4-32" vertex="1">
          <mxGeometry x="10" y="19" width="145" height="121" as="geometry" />
        </mxCell>
        <mxCell id="S0VbNr_1chNx2PSHg-j4-56" style="edgeStyle=orthogonalEdgeStyle;rounded=0;orthogonalLoop=1;jettySize=auto;html=1;fillColor=#f8cecc;strokeColor=#b85450;strokeWidth=3;" parent="S0VbNr_1chNx2PSHg-j4-2" source="S0VbNr_1chNx2PSHg-j4-44" target="S0VbNr_1chNx2PSHg-j4-22" edge="1">
          <mxGeometry relative="1" as="geometry" />
        </mxCell>
        <mxCell id="S0VbNr_1chNx2PSHg-j4-44" value="RTE-LAN" style="sketch=0;outlineConnect=0;gradientColor=none;html=1;whiteSpace=wrap;fontSize=10;fontStyle=0;shape=mxgraph.aws4.group;grIcon=mxgraph.aws4.group_subnet;strokeColor=#879196;fillColor=none;verticalAlign=top;align=left;spacingLeft=30;fontColor=#879196;dashed=0;" parent="S0VbNr_1chNx2PSHg-j4-2" vertex="1">
          <mxGeometry x="460" y="60" width="290" height="247" as="geometry" />
        </mxCell>
        <mxCell id="S0VbNr_1chNx2PSHg-j4-48" value="RTEngine" style="sketch=0;points=[[0,0,0],[0.25,0,0],[0.5,0,0],[0.75,0,0],[1,0,0],[0,1,0],[0.25,1,0],[0.5,1,0],[0.75,1,0],[1,1,0],[0,0.25,0],[0,0.5,0],[0,0.75,0],[1,0.25,0],[1,0.5,0],[1,0.75,0]];outlineConnect=0;fontColor=#232F3E;fillColor=#ED7100;strokeColor=#ffffff;dashed=0;verticalLabelPosition=bottom;verticalAlign=top;align=center;html=1;fontSize=10;fontStyle=0;aspect=fixed;shape=mxgraph.aws4.resourceIcon;resIcon=mxgraph.aws4.compute;" parent="S0VbNr_1chNx2PSHg-j4-2" vertex="1">
          <mxGeometry x="553" y="240" width="44" height="44" as="geometry" />
        </mxCell>
        <mxCell id="S0VbNr_1chNx2PSHg-j4-49" value="RTEngine" style="sketch=0;points=[[0,0,0],[0.25,0,0],[0.5,0,0],[0.75,0,0],[1,0,0],[0,1,0],[0.25,1,0],[0.5,1,0],[0.75,1,0],[1,1,0],[0,0.25,0],[0,0.5,0],[0,0.75,0],[1,0.25,0],[1,0.5,0],[1,0.75,0]];outlineConnect=0;fontColor=#232F3E;fillColor=#ED7100;strokeColor=#ffffff;dashed=0;verticalLabelPosition=bottom;verticalAlign=top;align=center;html=1;fontSize=10;fontStyle=0;aspect=fixed;shape=mxgraph.aws4.resourceIcon;resIcon=mxgraph.aws4.compute;" parent="S0VbNr_1chNx2PSHg-j4-2" vertex="1">
          <mxGeometry x="613" y="240" width="44" height="44" as="geometry" />
        </mxCell>
        <mxCell id="S0VbNr_1chNx2PSHg-j4-51" value="S-Redis" style="sketch=0;points=[[0,0,0],[0.25,0,0],[0.5,0,0],[0.75,0,0],[1,0,0],[0,1,0],[0.25,1,0],[0.5,1,0],[0.75,1,0],[1,1,0],[0,0.25,0],[0,0.5,0],[0,0.75,0],[1,0.25,0],[1,0.5,0],[1,0.75,0]];outlineConnect=0;fontColor=#232F3E;fillColor=#ED7100;strokeColor=#ffffff;dashed=0;verticalLabelPosition=bottom;verticalAlign=top;align=center;html=1;fontSize=10;fontStyle=0;aspect=fixed;shape=mxgraph.aws4.resourceIcon;resIcon=mxgraph.aws4.compute;" parent="S0VbNr_1chNx2PSHg-j4-2" vertex="1">
          <mxGeometry x="553" y="120" width="44" height="44" as="geometry" />
        </mxCell>
        <mxCell id="S0VbNr_1chNx2PSHg-j4-52" value="S-Redis" style="sketch=0;points=[[0,0,0],[0.25,0,0],[0.5,0,0],[0.75,0,0],[1,0,0],[0,1,0],[0.25,1,0],[0.5,1,0],[0.75,1,0],[1,1,0],[0,0.25,0],[0,0.5,0],[0,0.75,0],[1,0.25,0],[1,0.5,0],[1,0.75,0]];outlineConnect=0;fontColor=#232F3E;fillColor=#ED7100;strokeColor=#ffffff;dashed=0;verticalLabelPosition=bottom;verticalAlign=top;align=center;html=1;fontSize=10;fontStyle=0;aspect=fixed;shape=mxgraph.aws4.resourceIcon;resIcon=mxgraph.aws4.compute;" parent="S0VbNr_1chNx2PSHg-j4-2" vertex="1">
          <mxGeometry x="612" y="120" width="44" height="44" as="geometry" />
        </mxCell>
        <mxCell id="7RBB2trw8_pAzwCo_AKe-15" value="Availability zone&lt;div&gt;(usually only one)&lt;/div&gt;" style="sketch=0;outlineConnect=0;gradientColor=none;html=1;whiteSpace=wrap;fontSize=10;fontStyle=0;shape=mxgraph.aws4.group;grIcon=mxgraph.aws4.group_availability_zone;strokeColor=#545B64;fillColor=none;verticalAlign=top;align=left;spacingLeft=30;fontColor=#545B64;dashed=1;" parent="S0VbNr_1chNx2PSHg-j4-2" vertex="1">
          <mxGeometry x="194" y="20" width="188" height="550" as="geometry" />
        </mxCell>
        <mxCell id="S0VbNr_1chNx2PSHg-j4-21" style="rounded=0;orthogonalLoop=1;jettySize=auto;html=1;strokeWidth=3;fillColor=#dae8fc;strokeColor=#6c8ebf;" parent="S0VbNr_1chNx2PSHg-j4-2" source="S0VbNr_1chNx2PSHg-j4-13" edge="1">
          <mxGeometry relative="1" as="geometry">
            <mxPoint x="222" y="404" as="targetPoint" />
          </mxGeometry>
        </mxCell>
        <mxCell id="S0VbNr_1chNx2PSHg-j4-36" value="SIP" style="edgeStyle=orthogonalEdgeStyle;rounded=0;orthogonalLoop=1;jettySize=auto;html=1;fillColor=#f8cecc;strokeColor=#b85450;strokeWidth=3;" parent="S0VbNr_1chNx2PSHg-j4-2" source="S0VbNr_1chNx2PSHg-j4-35" target="S0VbNr_1chNx2PSHg-j4-14" edge="1">
          <mxGeometry relative="1" as="geometry">
            <Array as="points">
              <mxPoint x="728" y="699" />
            </Array>
          </mxGeometry>
        </mxCell>
        <mxCell id="S0VbNr_1chNx2PSHg-j4-39" value="HTTPS, Diameter,&amp;nbsp;&lt;div&gt;Radius, TCP plain, etc&lt;/div&gt;" style="edgeStyle=orthogonalEdgeStyle;rounded=0;orthogonalLoop=1;jettySize=auto;html=1;entryX=1;entryY=0.5;entryDx=0;entryDy=0;entryPerimeter=0;fillColor=#f8cecc;strokeColor=#b85450;strokeWidth=3;" parent="S0VbNr_1chNx2PSHg-j4-2" source="S0VbNr_1chNx2PSHg-j4-31" target="S0VbNr_1chNx2PSHg-j4-35" edge="1">
          <mxGeometry relative="1" as="geometry">
            <Array as="points">
              <mxPoint x="1083" y="699" />
            </Array>
          </mxGeometry>
        </mxCell>
        <mxCell id="S0VbNr_1chNx2PSHg-j4-41" style="edgeStyle=orthogonalEdgeStyle;rounded=0;orthogonalLoop=1;jettySize=auto;html=1;fillColor=#f8cecc;strokeColor=#b85450;strokeWidth=3;" parent="S0VbNr_1chNx2PSHg-j4-2" source="S0VbNr_1chNx2PSHg-j4-31" target="S0VbNr_1chNx2PSHg-j4-40" edge="1">
          <mxGeometry relative="1" as="geometry" />
        </mxCell>
        <mxCell id="S0VbNr_1chNx2PSHg-j4-19" value="Management&amp;nbsp;&lt;div&gt;ingress only&amp;nbsp;&lt;div&gt;internet gateway&lt;/div&gt;&lt;/div&gt;" style="outlineConnect=0;dashed=0;verticalLabelPosition=bottom;verticalAlign=top;align=center;html=1;shape=mxgraph.aws3.internet_gateway;fillColor=#F58534;gradientColor=none;" parent="S0VbNr_1chNx2PSHg-j4-2" vertex="1">
          <mxGeometry x="9" y="368.4" width="69" height="72" as="geometry" />
        </mxCell>
        <mxCell id="S0VbNr_1chNx2PSHg-j4-20" style="edgeStyle=orthogonalEdgeStyle;rounded=0;orthogonalLoop=1;jettySize=auto;html=1;strokeWidth=3;fillColor=#dae8fc;strokeColor=#6c8ebf;" parent="S0VbNr_1chNx2PSHg-j4-2" source="S0VbNr_1chNx2PSHg-j4-19" target="S0VbNr_1chNx2PSHg-j4-13" edge="1">
          <mxGeometry relative="1" as="geometry" />
        </mxCell>
      </root>
    </mxGraphModel>
  </diagram>
</mxfile>
